<?xml version="1.0" encoding="utf-8"?>
<!-- Generator: Adobe Illustrator 21.1.0, SVG Export Plug-In . SVG Version: 6.00 Build 0)  -->
<svg version="1.1" id="Layer_1" xmlns="http://www.w3.org/2000/svg" xmlns:xlink="http://www.w3.org/1999/xlink" x="0px" y="0px"
	 width="128px" height="128px" viewBox="0 0 128 128" enable-background="new 0 0 128 128" xml:space="preserve">
<rect fill="#9B5C8F" width="128" height="64"/>
<g>
	<path fill="#F1F2F2" d="M36.64,12h54.7c3.46,0,6.26,2.8,6.26,6.26v20.88c0,3.46-2.8,6.26-6.26,6.26H71.72L74.41,52l-11.84-6.59
		H36.66c-3.46,0-6.26-2.8-6.26-6.26V18.26C30.37,14.83,33.18,12,36.64,12z"/>
	<path fill="#9B5C8F" d="M33.75,17.69c0.38-0.52,0.96-0.8,1.73-0.85c1.4-0.11,2.2,0.55,2.39,1.98c0.85,5.74,1.79,10.6,2.77,14.59
		l6.02-11.46c0.55-1.04,1.24-1.59,2.06-1.65c1.21-0.08,1.95,0.69,2.25,2.31c0.69,3.65,1.57,6.76,2.61,9.4
		c0.71-6.98,1.92-12.01,3.63-15.11c0.41-0.77,1.02-1.15,1.81-1.21c0.63-0.05,1.21,0.14,1.73,0.55c0.52,0.41,0.8,0.93,0.85,1.57
		c0.03,0.49-0.05,0.91-0.27,1.32c-1.07,1.98-1.95,5.3-2.66,9.92C57.98,33.51,57.74,37,57.9,39.5c0.05,0.69-0.05,1.29-0.33,1.81
		c-0.33,0.6-0.82,0.93-1.46,0.99c-0.71,0.05-1.46-0.27-2.17-1.02c-2.55-2.61-4.59-6.51-6.07-11.7c-1.79,3.52-3.1,6.15-3.96,7.91
		c-1.62,3.1-2.99,4.7-4.15,4.78c-0.74,0.05-1.37-0.58-1.92-1.9c-1.4-3.6-2.91-10.55-4.53-20.85C33.23,18.81,33.37,18.18,33.75,17.69
		z"/>
	<path fill="#9B5C8F" d="M92.82,22c-0.99-1.73-2.45-2.77-4.4-3.19c-0.52-0.11-1.02-0.16-1.48-0.16c-2.64,0-4.78,1.37-6.46,4.12
		c-1.43,2.34-2.14,4.92-2.14,7.75c0,2.12,0.44,3.93,1.32,5.44c0.99,1.73,2.45,2.77,4.4,3.19c0.52,0.11,1.02,0.16,1.48,0.16
		c2.66,0,4.81-1.37,6.46-4.12c1.43-2.36,2.14-4.95,2.14-7.77C94.14,25.27,93.7,23.48,92.82,22L92.82,22z M89.36,29.61
		c-0.38,1.81-1.07,3.16-2.09,4.07c-0.8,0.71-1.54,1.02-2.23,0.88c-0.66-0.14-1.21-0.71-1.62-1.79c-0.33-0.85-0.49-1.7-0.49-2.5
		c0-0.69,0.05-1.37,0.19-2.01c0.25-1.13,0.71-2.23,1.46-3.27c0.91-1.35,1.87-1.9,2.86-1.7c0.66,0.14,1.21,0.71,1.62,1.79
		c0.33,0.85,0.49,1.7,0.49,2.5C89.55,28.29,89.47,28.98,89.36,29.61L89.36,29.61z"/>
	<path fill="#9B5C8F" d="M75.59,22c-0.99-1.73-2.47-2.77-4.4-3.19c-0.52-0.11-1.02-0.16-1.48-0.16c-2.64,0-4.78,1.37-6.46,4.12
		c-1.43,2.34-2.14,4.92-2.14,7.75c0,2.12,0.44,3.93,1.32,5.44c0.99,1.73,2.45,2.77,4.4,3.19c0.52,0.11,1.02,0.16,1.48,0.16
		c2.66,0,4.81-1.37,6.46-4.12c1.43-2.36,2.14-4.95,2.14-7.77C76.91,25.27,76.47,23.48,75.59,22L75.59,22z M72.13,29.61
		c-0.38,1.81-1.07,3.16-2.09,4.07c-0.8,0.71-1.54,1.02-2.23,0.88c-0.66-0.14-1.21-0.71-1.62-1.79c-0.33-0.85-0.49-1.7-0.49-2.5
		c0-0.69,0.05-1.37,0.19-2.01c0.25-1.13,0.71-2.23,1.46-3.27c0.91-1.35,1.87-1.9,2.86-1.7c0.66,0.14,1.21,0.71,1.62,1.79
		c0.33,0.85,0.49,1.7,0.49,2.5C72.32,28.29,72.27,28.98,72.13,29.61L72.13,29.61z"/>
</g>
<rect y="96" fill="#44A3E6" width="128" height="32"/>
<rect y="64" fill="#85B213" width="128" height="32"/>
<g>
	<g>
		<g>
			<polygon fill="#FFFFFF" points="98.19,91.1 98.19,91.1 98.19,91.1 			"/>
			<path fill="#FFFFFF" d="M98.19,84.38l-4.77,0c-0.52,0-0.94,0.42-0.94,0.94v0.66h0.33c2.16,0,2.96,0.36,2.96,2.32v2.79l2.43,0
				c0.52,0,0.94-0.42,0.94-0.94l0-4.83C99.13,84.8,98.71,84.38,98.19,84.38z"/>
			<path fill="#FFFFFF" d="M92.47,90.15v-4.17h-0.35c-2.16,0-2.96,0.36-2.96,2.32v4.6l0,0.03v1.01c0,0.04,0,0.07,0,0.1v6.42
				c0,0.78-0.15,1.41-0.46,1.89c-0.59,0.9-1.75,1.32-3.61,1.32c-1.86,0-3.03-0.41-3.61-1.32c-0.31-0.48-0.46-1.11-0.46-1.89v-6.42
				l0-0.1v-1.01l0-0.03v-4.6c0-1.96-0.8-2.32-2.96-2.32h-0.68c-2.16,0-2.96,0.36-2.96,2.32v12.16c0,1.96,0.44,3.61,1.29,4.95
				c1.65,2.59,4.83,3.96,9.37,3.96h0.03c4.53,0,7.72-1.38,9.37-3.96c0.85-1.34,1.29-2.99,1.29-4.95V91.1l-2.35,0
				C92.89,91.1,92.47,90.67,92.47,90.15z"/>
		</g>
		<path opacity="0.5" fill="#FFFFFF" d="M92.8,85.99h-0.33v4.17c0,0.52,0.42,0.94,0.94,0.94l2.35,0v-2.79
			C95.76,86.34,94.96,85.99,92.8,85.99z"/>
	</g>
	<path fill="#FFFFFF" d="M103.38,84.38l-3.55,0c-0.39,0-0.7-0.31-0.7-0.7v-3.59c0-0.39,0.31-0.7,0.7-0.7l3.55,0
		c0.39,0,0.7,0.31,0.7,0.7l0,3.59C104.08,84.07,103.77,84.38,103.38,84.38"/>
	<path fill="#FFFFFF" d="M98.66,79.39l-2.41,0c-0.26,0-0.48-0.21-0.48-0.48c0,0,0,0,0,0v-2.44c0-0.26,0.21-0.48,0.48-0.48h2.41
		c0.26,0,0.48,0.21,0.48,0.48v2.44C99.13,79.18,98.92,79.39,98.66,79.39"/>
	<path fill="#FFFFFF" d="M33.06,85.98L33.06,85.98l-5.16,0c-2.75,0-3.98,1.23-3.98,3.98v17.7c0,1.07,0.34,1.41,1.41,1.41h0.35
		c1.07,0,1.41-0.34,1.41-1.41v-6.89h5.98c5.31,0,7.78-2.35,7.78-7.4S38.37,85.98,33.06,85.98z M33.06,97.83h-5.98v-7.44
		c0-1.03,0.38-1.42,1.42-1.42h4.56c2.93,0,4.62,0.72,4.62,4.41h0C37.68,96.27,36.94,97.83,33.06,97.83z"/>
	<path fill="#FFFFFF" d="M47.48,91.06c-2.04,0-3.32,0.26-3.81,0.35c-0.86,0.19-1.22,0.42-1.22,1.4v0.28c0,0.38,0.06,0.65,0.18,0.84
		c0.14,0.22,0.37,0.33,0.68,0.33c0.15,0,0.33-0.03,0.53-0.08c0.49-0.12,2.06-0.38,3.78-0.38c3.08,0,4.34,0.85,4.34,2.95v1.87h-3.89
		c-5,0-7.33,1.69-7.33,5.31c0,3.51,2.41,5.45,6.77,5.45c5.19,0,7.5-1.77,7.5-5.73v-6.9C55.02,92.92,52.56,91.06,47.48,91.06z
		 M51.97,103.55c0,1.98-0.73,3.12-4.48,3.12c-2.48,0-3.68-0.9-3.68-2.74c0-2.02,1.21-2.81,4.31-2.81h3.85V103.55z"/>
	<path fill="#FFFFFF" d="M72.13,91.88c-0.22-0.28-0.64-0.32-1.06-0.32h-0.31c-1.04,0-1.45,0.32-1.68,1.32l-2.89,12.02
		c-0.36,1.48-0.87,1.75-1.74,1.75c-1.06,0-1.49-0.25-1.91-1.75l-3.28-12.02c-0.27-1.01-0.67-1.31-1.71-1.31h-0.28
		c-0.42,0-0.84,0.04-1.05,0.32c-0.21,0.28-0.14,0.7-0.03,1.11l3.31,12.13c0.62,2.32,1.36,4.24,4.12,4.24c0.51,0,0.99-0.07,1.39-0.2
		c-0.84,2.63-1.69,3.79-4.2,4.05c-0.51,0.04-0.84,0.12-1.02,0.36c-0.19,0.26-0.15,0.62-0.08,0.95l0.07,0.31
		c0.15,0.72,0.41,1.16,1.21,1.16c0.09,0,0.18,0,0.27-0.01c3.75-0.24,5.76-2.26,6.93-6.96l4.01-16.03
		C72.29,92.58,72.35,92.16,72.13,91.88"/>
	<path fill="#FFFFFF" d="M98.19,91.1l-2.43,0v-2.79c0-1.96-0.8-2.32-2.96-2.32h-0.33v-0.67c0-0.52,0.42-0.94,0.94-0.94h4.78
		c0.52,0,0.94,0.42,0.94,0.94v4.83C99.13,90.68,98.71,91.1,98.19,91.1"/>
</g>
</svg>
